<?xml version="1.0" encoding="UTF-8" standalone="no"?>
<!-- Created with Inkscape (http://www.inkscape.org/) -->

<svg
   width="100"
   height="100"
   viewBox="0 0 26.458333 26.458333"
   version="1.1"
   id="svg5"
   xml:space="preserve"
   inkscape:version="1.2.2 (732a01da63, 2022-12-09)"
   sodipodi:docname="logo-joker.svg"
   inkscape:export-filename="logo-joker.svg"
   inkscape:export-xdpi="96"
   inkscape:export-ydpi="96"
   xmlns:inkscape="http://www.inkscape.org/namespaces/inkscape"
   xmlns:sodipodi="http://sodipodi.sourceforge.net/DTD/sodipodi-0.dtd"
   xmlns="http://www.w3.org/2000/svg"
   xmlns:svg="http://www.w3.org/2000/svg"><sodipodi:namedview
     id="namedview7"
     pagecolor="#ffffff"
     bordercolor="#000000"
     borderopacity="0.25"
     inkscape:showpageshadow="2"
     inkscape:pageopacity="0.0"
     inkscape:pagecheckerboard="0"
     inkscape:deskcolor="#d1d1d1"
     inkscape:document-units="mm"
     showgrid="false"
     inkscape:zoom="1.4770343"
     inkscape:cx="39.267877"
     inkscape:cy="-6.0932913"
     inkscape:window-width="1920"
     inkscape:window-height="1009"
     inkscape:window-x="-8"
     inkscape:window-y="-8"
     inkscape:window-maximized="1"
     inkscape:current-layer="layer2" /><defs
     id="defs2" /><g
     inkscape:groupmode="layer"
     id="layer2"
     inkscape:label="Capa 2"
     transform="matrix(0.86910044,0,0,0.86910044,-1.1266941,1.1872286)"><g
       id="g1946"
       style="fill:#ffffff;fill-opacity:1"
       transform="translate(-1.0305568)"><circle
         style="fill:#ffffff;fill-opacity:1;stroke-width:0.265;stroke-dasharray:none"
         id="path286"
         cx="6.1590896"
         cy="12.397346"
         r="1.0291538" /><circle
         style="fill:#ffffff;fill-opacity:1;stroke-width:0.265;stroke-dasharray:none"
         id="path286-8"
         cx="29.101303"
         cy="12.381512"
         r="1.0291538" /><circle
         style="fill:#ffffff;fill-opacity:1;stroke-width:0.265;stroke-dasharray:none"
         id="path286-6"
         cx="17.669781"
         cy="14.43982"
         r="1.0291538" /><path
         style="fill:#ffffff;fill-opacity:1;stroke-width:0.264999;stroke-dasharray:none"
         d="M 13.299834,13.204835 C 13.44093,13.289493 11.407881,6.3309438 8.6132258,6.9032471 5.5343347,7.5337576 6.3965867,11.71652 6.3965867,11.71652 l -0.6649916,0.095 c 0,0 -0.7916568,-1.804977 -0.6333254,-3.4199571 C 5.2566011,6.7765821 6.523252,3.1349609 9.2782175,2.3749703 11.577217,1.7407635 13.93316,3.3566248 13.93316,3.3566248 c 0,0 3.039961,1.6783124 3.641621,1.7416449 0.601659,0.063332 4.24328,-2.0583078 4.24328,-2.0583078 0,0 1.773311,-0.8866554 3.071628,-0.7916566 1.298317,0.094999 2.786632,0.5066604 4.433277,3.5466223 1.646648,3.0399622 0.158332,6.0799244 0.158332,6.0799244 l -0.696658,-0.25333 c 0,0 0.19,-3.1666275 -0.791655,-4.0216169 -0.981654,-0.8549894 -2.790398,-1.6203757 -4.591611,1.4883148 -1.436271,2.4788421 -1.456648,4.0216161 -1.456648,4.0216161 0,0 -0.03167,-2.026641 -0.126665,-2.88163 -0.095,-0.8549896 -0.474994,-1.3299837 -1.171652,-0.9816547 -0.696658,0.348329 -3.134961,1.8999757 -3.134961,1.8999757 0,0 -1.804977,-1.2983166 -2.37497,-1.5199806 -0.569993,-0.2216639 -1.646646,-1.2349845 -1.804978,0.6333256 -0.158331,1.86831 -0.03167,2.944963 -0.03167,2.944963 z"
         id="path1065"
         sodipodi:nodetypes="csccsscscssccssccscsscc" /><path
         style="fill:#ffffff;fill-opacity:1;stroke-width:0.264999;stroke-dasharray:none"
         d="m 15.307926,14.508915 c 0,0 -0.181887,-1.048888 -0.0093,-1.367412 0,0 0.117857,0.06944 0.420136,0.04705 0.481416,-0.06717 0.570982,-0.134348 0.570982,-0.134348 0,0 -0.10824,-0.271003 -0.481416,-0.515003 -0.291088,-0.190327 -0.481416,-0.235111 -0.481416,-0.235111 0,0 -0.115578,-0.228392 -0.01119,-0.671742 0.08798,-0.373663 0.180298,-0.777742 0.190327,-0.794896 0,0 -0.369459,0.380654 -0.492612,0.806091 -0.123153,0.425438 -0.134349,0.570982 -0.134349,0.570982 0,0 -0.100761,-0.111957 -0.291088,-0.03359 -0.190327,0.07837 -0.279893,0.179131 -0.279893,0.179131 0,0 0.09674,0.314108 0.436633,0.615765 0,0 0.07837,0.369458 0.145544,0.716526 0.05115,0.264258 0.204903,0.491877 0.204903,0.491877 z"
         id="path1116"
         sodipodi:nodetypes="csccscscscscsscc"
         inkscape:transform-center-x="-0.26869722"
         inkscape:transform-center-y="0.022391435" /><path
         style="fill:#ffffff;fill-opacity:1;stroke-width:0.264999;stroke-dasharray:none"
         d="m 19.947343,14.486524 c 0,0 0.181887,-1.048888 0.0093,-1.367412 0,0 -0.117857,0.06944 -0.420136,0.04705 -0.481416,-0.06717 -0.570982,-0.134348 -0.570982,-0.134348 0,0 0.10824,-0.271003 0.481416,-0.515003 0.291088,-0.190327 0.481416,-0.235111 0.481416,-0.235111 0,0 0.115578,-0.228392 0.01119,-0.671742 -0.08798,-0.373663 -0.180298,-0.777742 -0.190327,-0.794896 0,0 0.369459,0.380654 0.492612,0.806091 0.123153,0.425438 0.134349,0.570982 0.134349,0.570982 0,0 0.100761,-0.111957 0.291088,-0.03359 0.190327,0.07837 0.279893,0.179131 0.279893,0.179131 0,0 -0.09674,0.314108 -0.436633,0.615765 0,0 -0.07837,0.369458 -0.145544,0.716526 -0.05115,0.264258 -0.204903,0.491877 -0.204903,0.491877 z"
         id="path1143"
         sodipodi:nodetypes="csccscscscscsscc"
         inkscape:transform-center-x="0.26869677"
         inkscape:transform-center-y="0.022391435" /><path
         style="fill:#ffffff;fill-opacity:1;stroke-width:0.264999;stroke-dasharray:none"
         d="m 14.962313,14.677317 c 0,0 0.0037,0.743196 0.631734,1.050749 0.717423,0.252018 0.727813,0.190355 1.518607,0.192247 l 1.332291,-0.0056 c 0,0 0.723291,0.04297 1.125169,-0.190327 0.414344,-0.240533 0.649352,-1.007615 0.649352,-1.007615 0.02614,0.171674 -0.01679,0.929244 -0.347067,1.349084 -0.350304,0.445302 -0.454115,0.46481 -0.671743,0.610166 -0.477724,0.319078 -1.035604,0.610167 -1.59539,0.604569 -0.559785,-0.0056 -0.918048,-0.240708 -1.405062,-0.487014 -0.487194,-0.246397 -0.584867,-0.417127 -0.856473,-0.699734 -0.159179,-0.165626 -0.510932,-0.845814 -0.381418,-1.416527 z"
         id="path1871"
         sodipodi:nodetypes="ccccssssssscc" /><path
         style="fill:#ffffff;fill-opacity:1;stroke-width:0.264999;stroke-dasharray:none"
         d="m 17.606447,18.778099 c 0,0 1.488315,-0.633326 2.295805,-1.377483 0.80749,-0.744157 1.329983,-1.709978 1.329983,-1.709978 0,0 0.839156,0 1.804977,0.633325 0.965822,0.633325 1.409149,1.725812 1.409149,1.725812 0,0 -0.981654,-0.364162 -1.440815,-0.522494 -0.459161,-0.158331 -0.981654,-0.269163 -0.981654,-0.269163 0,0 0.543087,0.966183 0.585826,2.105807 0.0475,1.26665 -0.474994,2.184973 -0.474994,2.184973 0,0 -0.443328,-0.902489 -1.013321,-1.393316 -0.569993,-0.490827 -1.044987,-0.823323 -1.044987,-0.823323 0,0 0.08935,1.76228 -0.411661,3.150794 -0.55416,1.535813 -2.058308,3.008296 -2.058308,3.008296 0,0 -1.326464,-0.953086 -2.042475,-2.92913 -0.599718,-1.655098 -0.459161,-3.214127 -0.459161,-3.214127 0,0 -0.300829,0.126665 -1.076653,0.918322 -0.775824,0.791657 -0.981654,1.345816 -0.981654,1.345816 0,0 -0.712491,-1.124152 -0.459161,-2.533301 0.25333,-1.40915 0.601659,-1.789145 0.601659,-1.789145 0,0 -0.522493,0.158331 -1.187485,0.348329 -0.664992,0.189998 -1.266651,0.474994 -1.266651,0.474994 0,0 0.538327,-1.298317 1.329983,-1.789144 0.791657,-0.490827 1.91581,-0.664992 1.91581,-0.664992 0,0 0.189997,0.997488 1.361649,1.820811 1.171653,0.823323 2.264139,1.298317 2.264139,1.298317 z"
         id="path1936"
         sodipodi:nodetypes="cscscscscscscscscscscscsc" /></g></g></svg>
